<?xml version="1.0" standalone="no"?>
<!DOCTYPE svg PUBLIC "-//W3C//DTD SVG 20010904//EN"
 "http://www.w3.org/TR/2001/REC-SVG-20010904/DTD/svg10.dtd">
<svg version="1.0" xmlns="http://www.w3.org/2000/svg"
 width="5275.000000pt" height="5275.000000pt" viewBox="0 0 5275.000000 5275.000000"
 preserveAspectRatio="xMidYMid meet">

<g transform="translate(0.000000,5275.000000) scale(0.100000,-0.100000)"
fill="#000000" stroke="none">
<path d="M22945 45529 c-1464 -70 -2632 -342 -3645 -850 -1049 -526 -1922
-1224 -2559 -2049 -737 -954 -1230 -1996 -1527 -3230 -217 -901 -333 -1751
-364 -2665 -6 -179 -10 -1417 -10 -3072 l0 -2773 -1669 0 c-1820 0 -1731 3
-1909 -57 -168 -56 -307 -145 -442 -283 -144 -146 -231 -301 -293 -517 l-22
-78 -3 -2050 c-3 -2222 -5 -2117 50 -2285 130 -398 468 -693 878 -765 73 -13
319 -15 1748 -15 l1662 0 0 -8274 c0 -5654 3 -8306 10 -8375 53 -517 454 -928
975 -1000 52 -8 859 -11 2578 -11 2749 0 2589 -3 2779 60 381 128 649 430 750
845 9 39 13 1427 18 6150 5 4789 9 6124 18 6210 50 434 116 742 236 1100 478
1421 1597 2547 3011 3031 1394 478 2897 292 4070 -503 1091 -741 1792 -1887
1950 -3193 8 -69 19 -217 25 -330 6 -130 10 -2426 10 -6288 0 -6023 0 -6085
20 -6180 69 -338 281 -618 585 -774 101 -51 173 -77 290 -104 77 -18 182 -19
2660 -19 l2580 0 95 24 c305 76 560 263 715 523 57 95 88 170 123 297 l27 96
0 7745 c0 8097 1 7796 -41 8170 -322 2865 -2226 5317 -4929 6350 -626 239
-1313 401 -1975 464 -85 9 -175 18 -200 22 -25 4 -1899 9 -4165 13 l-4120 7
-86 21 c-464 115 -779 440 -881 908 -19 89 -19 4645 0 4850 99 1042 386 1740
938 2275 188 182 338 295 571 427 370 212 785 343 1263 397 276 32 488 35
1520 26 1018 -9 1096 -7 1237 25 209 48 441 190 581 355 164 193 249 398 273
659 6 77 9 719 7 1916 -4 1788 -4 1801 -25 1890 -51 221 -142 391 -292 547
-169 177 -370 287 -612 333 -72 13 -331 15 -2203 13 -1166 0 -2193 -4 -2281
-9z"/>
<path d="M33775 41159 c-859 -65 -1594 -336 -2250 -827 -824 -618 -1384 -1559
-1565 -2631 -48 -286 -55 -389 -55 -786 0 -338 3 -399 23 -550 67 -497 188
-900 407 -1359 279 -582 735 -1137 1245 -1513 335 -247 753 -462 1152 -592
970 -315 2183 -270 3103 116 1190 500 2011 1407 2360 2608 130 451 182 865
172 1387 -7 400 -42 675 -129 1023 -270 1083 -910 1966 -1833 2526 -534 324
-1104 514 -1755 584 -174 19 -702 28 -875 14z"/>
</g>
</svg>
